<?xml version="1.0" encoding="utf-8"?>
<!-- Generator: Adobe Illustrator 26.0.1, SVG Export Plug-In . SVG Version: 6.00 Build 0)  -->
<svg version="1.1" id="Слой_1" xmlns="http://www.w3.org/2000/svg" xmlns:xlink="http://www.w3.org/1999/xlink" x="0px" y="0px"
	 viewBox="0 0 1000 1000" style="enable-background:new 0 0 1000 1000;" xml:space="preserve">
<style type="text/css">
	.st0{fill:url(#SVGID_1_);}
	.st1{fill:url(#SVGID_00000013903367682149295390000014250644287594725289_);}
	.st2{fill:#D65C7C;}
</style>
<g>
	<linearGradient id="SVGID_1_" gradientUnits="userSpaceOnUse" x1="225.9971" y1="556.2682" x2="486.0244" y2="300.9437">
		<stop  offset="0.1588" style="stop-color:#D6517C"/>
		<stop  offset="0.673" style="stop-color:#F0936A"/>
	</linearGradient>
	<path class="st0" d="M526.42,489.18c0,22.43-18.18,40.61-40.61,40.61c-13.47,0-25.41-6.56-32.8-16.66H352.98
		c-6.41,18.2-23.76,31.24-44.17,31.24c-1.31,0-2.62-0.06-3.91-0.19l-26.05,45.13c6.33,7.16,10.18,16.6,10.18,26.9
		c0,22.43-18.18,40.61-40.61,40.61s-40.61-18.18-40.61-40.61c0-22.43,18.18-40.61,40.61-40.61c3.06,0,6.04,0.33,8.91,1l23.82-41.27
		c-5.98-4.37-10.89-10.12-14.22-16.81l-44.77,9.72c-1.81,14.95-14.54,26.53-29.97,26.53c-16.68,0-30.2-13.51-30.2-30.2
		c0-16.68,13.51-30.2,30.2-30.2c11.33,0,21.18,6.23,26.36,15.45l43.5-9.43c-0.08-0.96-0.1-1.92-0.1-2.89
		c0-21.18,14.04-39.07,33.32-44.86V302.8c-2.96-3.06-7.93-9.06-10.64-18.01c0,0-1.85-6.27-1.85-12.18
		c0-22.43,18.18-40.61,40.61-40.61s40.61,18.18,40.61,40.61c0,12.52-5.66,23.72-14.58,31.15v161.47h103.6
		c7.39-10.1,19.32-16.66,32.8-16.66C508.24,448.57,526.42,466.75,526.42,489.18z M248.42,594.34c-12.08,0-21.87,9.79-21.87,21.87
		s9.79,21.87,21.87,21.87c12.08,0,21.87-9.79,21.87-21.87S260.5,594.34,248.42,594.34z M486.86,471.48
		c-10.35,0-18.74,8.39-18.74,18.74s8.39,18.74,18.74,18.74s18.74-8.39,18.74-18.74S497.21,471.48,486.86,471.48z M322.35,252.82
		c-10.35,0-18.74,8.39-18.74,18.74s8.39,18.74,18.74,18.74s18.74-8.39,18.74-18.74S332.7,252.82,322.35,252.82z M308.81,473.56
		c-13.22,0-23.95,10.72-23.95,23.95c0,13.22,10.72,23.95,23.95,23.95s23.95-10.72,23.95-23.95
		C332.76,484.29,322.03,473.56,308.81,473.56z"/>
</g>
<linearGradient id="SVGID_00000075845921992027996130000002543986792086598786_" gradientUnits="userSpaceOnUse" x1="496.1231" y1="395.5428" x2="493.179" y2="179.2431">
	<stop  offset="0" style="stop-color:#D6517C"/>
	<stop  offset="0.2726" style="stop-color:#E67A71"/>
	<stop  offset="0.4665" style="stop-color:#F0936A"/>
</linearGradient>
<path style="fill:url(#SVGID_00000075845921992027996130000002543986792086598786_);" d="M534.75,513.13
	c2.81-6.04,6.14-15.45,6.25-27.07c0.08-8.41-1.56-14.74-2.08-16.66c-1.83-6.64-4.37-11.25-6.25-14.58
	c-1.17-2.08-6.46-11.27-16.66-20.82c-4.54-4.27-11.29-9.72-20.41-14.58h-52.48v27.07H386.9V306.97c0.37-2.37,2.39-13.33,12.49-20.82
	c7.73-5.73,15.81-6.21,18.74-6.25h100.81c5.62,0.17,12.6,1.15,19.97,4.16c7.68,3.14,12.66,7.14,16.66,10.41
	c9.7,7.95,15.04,16.16,16.66,18.74c2.33,3.75,6.14,9.95,8.33,18.74c4.08,16.35-0.48,29.99-2.08,35.4c-1,3.39-5.46,15.58-16.66,27.07
	c-4.69,4.81-9.79,8.68-15.01,11.79c8.04,4.56,16.93,10.83,25.43,19.45c31.22,31.69,34.84,72.63,35.4,87.46H534.75z M509.76,371.52
	c7.29-5.91,8.18-14.68,8.33-16.66c0.02-2.42-0.25-8.43-4.16-14.58c-4.29-6.73-10.31-9.52-12.49-10.41h-58.31v45.81h58.31
	C503.6,375.12,506.72,373.98,509.76,371.52z"/>
<g>
	<path class="st2" d="M357.14,553.62h22.55c8.71,0,15.6,2.39,20.66,7.16c5.06,4.77,7.6,10.94,7.6,18.5c0,7.93-2.57,14.16-7.71,18.69
		s-12.46,6.79-21.98,6.79h-21.12V553.62z M369.88,562.99v32.4h8.31c5.39,0,9.52-1.48,12.37-4.45s4.28-6.88,4.28-11.73
		c0-5.03-1.45-8.99-4.34-11.88s-7.05-4.34-12.46-4.34H369.88z"/>
	<path class="st2" d="M423.52,604.75v-23.86l-20.17-27.28h15.44l11.1,16.07l11.14-16.07h15.4l-20.17,27.29v23.85H423.52z"/>
	<path class="st2" d="M513.19,553.62v51.14h-10.76l-28.23-32.76v32.76h-12.74v-51.14h11.68l27.3,31.26v-31.26H513.19z"/>
	<path class="st2" d="M553.86,553.62l22.71,51.14h-13.7l-4.21-10.1h-22.9l-3.82,10.1h-13.5l20.66-51.14H553.86z M554.93,585.72
		l-8.29-19.88l-7.51,19.88H554.93z"/>
	<path class="st2" d="M609.22,572.58l16.44-18.96h11.07v51.14h-12.74v-31.92l-13.82,16.03h-1.91l-13.81-16.03v31.92h-12.74v-51.14
		h11.06L609.22,572.58z"/>
	<path class="st2" d="M660.47,553.62v51.14h-12.74v-51.14H660.47z"/>
	<path class="st2" d="M719.17,589.16v11.16c-6.39,3.39-13.09,5.09-20.1,5.09c-9.08,0-16.31-2.51-21.69-7.52
		c-5.38-5.01-8.07-11.2-8.07-18.54c0-7.34,2.84-13.58,8.51-18.71c5.67-5.12,13.09-7.69,22.24-7.69c7.3,0,13.47,1.5,18.52,4.5v11.38
		c-6.2-3.49-12.07-5.24-17.61-5.24c-5.44,0-9.89,1.46-13.34,4.38s-5.18,6.63-5.18,11.15c0,4.54,1.7,8.29,5.11,11.24
		c3.4,2.95,7.77,4.43,13.09,4.43c2.64,0,5.17-0.35,7.61-1.04S714.34,591.53,719.17,589.16z"/>
	<path class="st2" d="M758.48,553.62l22.71,51.14h-13.7l-4.21-10.1h-22.9l-3.82,10.1h-13.5l20.66-51.14H758.48z M759.56,585.72
		l-8.29-19.88l-7.51,19.88H759.56z"/>
	<path class="st2" d="M825.32,595.38v9.37h-38.98v-51.14h12.74v41.77H825.32z"/>
</g>
</svg>
